<svg width="24" height="24" viewBox="0 0 24 24" fill="none" xmlns="http://www.w3.org/2000/svg">
<path d="M17.9231 6.27273H2.69231C2.24348 6.27273 1.81303 6.44513 1.49567 6.75201C1.1783 7.05889 1 7.4751 1 7.90909V19.3636C1 19.7976 1.1783 20.2138 1.49567 20.5207C1.81303 20.8276 2.24348 21 2.69231 21H17.9231C18.3719 21 18.8023 20.8276 19.1197 20.5207C19.4371 20.2138 19.6154 19.7976 19.6154 19.3636V7.90909C19.6154 7.4751 19.4371 7.05889 19.1197 6.75201C18.8023 6.44513 18.3719 6.27273 17.9231 6.27273ZM17.9231 19.3636H2.69231V7.90909H17.9231V19.3636ZM23 4.63636V16.9091C23 17.1261 22.9109 17.3342 22.7522 17.4876C22.5935 17.6411 22.3783 17.7273 22.1538 17.7273C21.9294 17.7273 21.7142 17.6411 21.5555 17.4876C21.3968 17.3342 21.3077 17.1261 21.3077 16.9091V4.63636H5.23077C5.00636 4.63636 4.79113 4.55016 4.63245 4.39672C4.47376 4.24328 4.38462 4.03518 4.38462 3.81818C4.38462 3.60119 4.47376 3.39308 4.63245 3.23964C4.79113 3.0862 5.00636 3 5.23077 3H21.3077C21.7565 3 22.187 3.1724 22.5043 3.47928C22.8217 3.78616 23 4.20237 23 4.63636Z" fill="#2C5DBB"/>
</svg>
