<svg width="13" height="13" viewBox="0 0 13 13" fill="none" xmlns="http://www.w3.org/2000/svg">
<path d="M12.2778 1.95C12.4693 1.95 12.653 2.01848 12.7885 2.14038C12.9239 2.26228 13 2.42761 13 2.6C13 2.77239 12.9239 2.93772 12.7885 3.05962C12.653 3.18152 12.4693 3.25 12.2778 3.25H11.5556L11.5534 3.29615L10.8796 11.7923C10.8536 12.1203 10.6905 12.4272 10.4232 12.6513C10.1558 12.8754 9.80407 13 9.43872 13H3.56056C3.19521 13 2.84344 12.8754 2.57608 12.6513C2.30873 12.4272 2.14566 12.1203 2.11972 11.7923L1.44589 3.2968C1.44479 3.28122 1.44431 3.26561 1.44444 3.25H0.722222C0.530677 3.25 0.346977 3.18152 0.211534 3.05962C0.076091 2.93772 0 2.77239 0 2.6C0 2.42761 0.076091 2.26228 0.211534 2.14038C0.346977 2.01848 0.530677 1.95 0.722222 1.95H12.2778ZM10.1089 3.25H2.89106L3.56128 11.7H9.43872L10.1089 3.25ZM7.94444 0C8.13599 0 8.31969 0.0684819 8.45513 0.190381C8.59058 0.312279 8.66667 0.477609 8.66667 0.65C8.66667 0.822391 8.59058 0.987721 8.45513 1.10962C8.31969 1.23152 8.13599 1.3 7.94444 1.3H5.05556C4.86401 1.3 4.68031 1.23152 4.54487 1.10962C4.40942 0.987721 4.33333 0.822391 4.33333 0.65C4.33333 0.477609 4.40942 0.312279 4.54487 0.190381C4.68031 0.0684819 4.86401 0 5.05556 0H7.94444Z" fill="#2C5DBB"/>
</svg>
