<svg width="19" height="19" viewBox="0 0 19 19" fill="none" xmlns="http://www.w3.org/2000/svg">
<path d="M18.1322 1.64346C18.0256 1.37675 17.849 1.14986 17.6243 0.991013C17.3997 0.832162 17.1368 0.748358 16.8686 0.750024H1.63596C1.36795 0.750596 1.10584 0.835403 0.881449 0.994155C0.657055 1.15291 0.480012 1.37879 0.371799 1.64438C0.263586 1.90998 0.228852 2.20389 0.271812 2.49045C0.314771 2.77701 0.433577 3.04391 0.613818 3.25877L0.620742 3.26721L6.48269 10.0472V17.25C6.48263 17.5215 6.5506 17.7879 6.67933 18.0208C6.80806 18.2538 6.99274 18.4445 7.21367 18.5727C7.43461 18.7008 7.68351 18.7617 7.93385 18.7486C8.18419 18.7356 8.42657 18.6493 8.63516 18.4988L11.4047 16.4981C11.5946 16.3612 11.7503 16.1755 11.8579 15.9576C11.9656 15.7398 12.0219 15.4965 12.0218 15.2494V10.0472L17.8846 3.26721L17.8916 3.25877C18.0737 3.04489 18.1937 2.77764 18.2364 2.49037C18.2792 2.2031 18.243 1.90854 18.1322 1.64346ZM11.0127 9.02627C10.7721 9.30245 10.6378 9.66753 10.637 10.0472V15.2494L7.86747 17.25V10.0472C7.86828 9.66617 7.73451 9.29923 7.49358 9.02159L1.63596 2.25002H16.8686L11.0127 9.02627Z" fill="#2C5DBB"/>
</svg>
