<svg width="32" height="32" viewBox="0 0 32 32" fill="none" xmlns="http://www.w3.org/2000/svg">
<g clip-path="url(#clip0_2048_2292)">
<path d="M4.79948 0H27.2005C29.8516 0 32 2.14844 32 4.79948V27.2005C32 29.8516 29.8516 32 27.2005 32H4.79948C2.14844 32 0 29.8516 0 27.2005V4.79948C0 2.14844 2.14844 0 4.79948 0Z" fill="#F5C518"/>
<path d="M6.5 20.5V11.5H4V20.5H6.5ZM11.8125 11.5L11.25 15.6875L10.9375 13.4375L10.625 11.5H7.5V20.5H9.625V14.5625L10.5 20.5H12.0625L12.875 14.4375V20.5H15V11.5H11.8125ZM16 20.5V11.5H19.875C20.8125 11.5 21.5 12.1875 21.5 13.0625V18.9375C21.5 19.8125 20.8125 20.5 19.875 20.5H16ZM18.9375 13.125L18.375 13.0625V18.9375C18.6875 18.9375 18.9375 18.875 19 18.75C19.125 18.625 19.125 18.25 19.125 17.625V14.125V13.375L18.9375 13.125ZM26.1875 13.75H26.375C27.25 13.75 28 14.4375 28 15.3125V18.9375C28 19.8125 27.25 20.5 26.375 20.5H26.1875C25.6875 20.5 25.1875 20.25 24.875 19.8125L24.75 20.375H22.5V11.5H24.875V14.375C25.1875 14 25.6875 13.75 26.1875 13.75ZM25.6875 18.125V16L25.625 15.3125C25.5625 15.1875 25.375 15.125 25.25 15.125C25.125 15.125 24.9375 15.1875 24.875 15.3125V18.875C24.9375 19 25.125 19.0625 25.25 19.0625C25.375 19.0625 25.625 19 25.625 18.875L25.6875 18.125Z" fill="black"/>
</g>
<defs>
<clipPath id="clip0_2048_2292">
<rect width="32" height="32" fill="white"/>
</clipPath>
</defs>
</svg>
