<svg width="23" height="25" viewBox="0 0 23 25" fill="none" xmlns="http://www.w3.org/2000/svg">
<path d="M7.00793 5.19316C6.49951 5.19316 6.10004 4.78158 6.10004 4.28526V0.907895C6.10004 0.411579 6.49951 0 7.00793 0C7.51635 0 7.91583 0.411579 7.91583 0.907895V4.27316C7.91583 4.78158 7.51635 5.19316 7.00793 5.19316Z" fill="#2C5DBB"/>
<path d="M15.9922 5.19316C15.4838 5.19316 15.0843 4.78158 15.0843 4.28526V0.907895C15.0843 0.399474 15.4959 0 15.9922 0C16.5006 0 16.9001 0.411579 16.9001 0.907895V4.27316C16.9001 4.78158 16.5006 5.19316 15.9922 5.19316Z" fill="#2C5DBB"/>
<path d="M20.6637 3.02643C19.8647 2.43327 18.7147 3.00222 18.7147 4.00696V4.12801C18.7147 5.54433 17.6979 6.85169 16.2816 6.99696C14.6474 7.16643 13.2674 5.88327 13.2674 4.28538V3.02643C13.2674 2.36064 12.7226 1.8159 12.0568 1.8159H10.9432C10.2774 1.8159 9.73263 2.36064 9.73263 3.02643V4.28538C9.73263 5.24169 9.23632 6.08906 8.48579 6.56117C8.37684 6.6338 8.25579 6.69433 8.13474 6.75485C8.02579 6.81538 7.90474 6.8638 7.77158 6.90012C7.62632 6.94854 7.46895 6.98485 7.29947 6.99696C7.10579 7.02117 6.91211 7.02117 6.71842 6.99696C6.54895 6.98485 6.39158 6.94854 6.24632 6.90012C6.12526 6.8638 6.00421 6.81538 5.88316 6.75485C5.76211 6.69433 5.64105 6.6338 5.53211 6.56117C4.76947 6.02854 4.28526 5.10854 4.28526 4.12801V4.00696C4.28526 3.07485 3.29263 2.51801 2.50579 2.91748C2.49368 2.92959 2.48158 2.92959 2.46947 2.94169C2.42105 2.9659 2.38474 2.99012 2.33632 3.02643C2.3 3.06275 2.25158 3.08696 2.21526 3.12327C1.87632 3.38959 1.57368 3.69222 1.31947 4.01906C1.18632 4.16433 1.07737 4.32169 0.980526 4.47906C0.968421 4.49117 0.956316 4.50327 0.944211 4.52748C0.835263 4.68485 0.738421 4.86643 0.653684 5.0359C0.629474 5.06012 0.617368 5.07222 0.617368 5.09643C0.544737 5.24169 0.472105 5.38696 0.423684 5.54433C0.387368 5.60485 0.375263 5.65327 0.351053 5.7138C0.278421 5.89538 0.23 6.07696 0.181579 6.25854C0.133158 6.42801 0.096842 6.60959 0.0726315 6.79117C0.048421 6.92433 0.0363158 7.05748 0.0242105 7.20275C0.0121052 7.37222 0 7.54169 0 7.71117V18.3154C0 21.5717 2.63895 24.2106 5.89526 24.2106H17.1047C20.3611 24.2106 23 21.5717 23 18.3154V7.71117C23 5.78643 22.08 4.1038 20.6637 3.02643ZM11.5 18.6664H5.88316C5.38684 18.6664 4.97526 18.2549 4.97526 17.7585C4.97526 17.2501 5.38684 16.8385 5.88316 16.8385H11.5C12.0084 16.8385 12.4079 17.2501 12.4079 17.7585C12.4079 18.2549 12.0084 18.6664 11.5 18.6664ZM14.8653 14.1754H5.88316C5.38684 14.1754 4.97526 13.7638 4.97526 13.2675C4.97526 12.7591 5.38684 12.3475 5.88316 12.3475H14.8653C15.3737 12.3475 15.7853 12.7591 15.7853 13.2675C15.7853 13.7638 15.3737 14.1754 14.8653 14.1754Z" fill="#2C5DBB"/>
</svg>
