<svg width="32" height="32" viewBox="0 0 32 32" fill="none" xmlns="http://www.w3.org/2000/svg">
<g clip-path="url(#clip0_2438_769)">
<path d="M27.2 0H4.8C2.14903 0 0 2.14903 0 4.8V27.2C0 29.851 2.14903 32 4.8 32H27.2C29.851 32 32 29.851 32 27.2V4.8C32 2.14903 29.851 0 27.2 0Z" fill="#E84352"/>
<path d="M23.3752 8H8.62483C7.17511 8 6 9.14819 6 10.5631V17.6661C6 17.7978 6.01023 17.9273 6.03028 18.0539C6.00986 18.2444 5.99976 18.4359 6 18.6274C6 22.6985 10.4769 26 16 26C21.5231 26 25.9999 22.6985 25.9999 18.6275C25.9999 18.4343 25.9893 18.243 25.9697 18.054C25.9893 17.9274 26 17.7979 26 17.6661V10.5638C26 9.14781 24.8236 8 23.3752 8H23.3752ZM22.1323 15.14L16.9673 20.1456C16.8427 20.2667 16.6943 20.3624 16.531 20.4271C16.3677 20.4918 16.1926 20.5242 16.0162 20.5224C15.8342 20.5286 15.6528 20.4984 15.4834 20.4336C15.314 20.3687 15.1602 20.2707 15.0317 20.1456L9.86783 15.14C9.34894 14.6373 9.35027 13.8219 9.86783 13.3201C9.99104 13.2005 10.1374 13.1056 10.2985 13.0409C10.4596 12.9761 10.6322 12.9428 10.8066 12.9428C10.981 12.9428 11.1537 12.9761 11.3148 13.0409C11.4759 13.1056 11.6222 13.2005 11.7454 13.3201L16 17.4441L20.2547 13.3201C20.7714 12.8173 21.6147 12.8186 22.1323 13.3201C22.6512 13.8227 22.6512 14.6365 22.1323 15.14Z" fill="white"/>
</g>
<defs>
<clipPath id="clip0_2438_769">
<rect width="32" height="32" rx="16" fill="white"/>
</clipPath>
</defs>
</svg>
