<svg width="16" height="15" viewBox="0 0 16 15" fill="none" xmlns="http://www.w3.org/2000/svg">
<path d="M11 9.37492C10.6665 9.37482 10.3363 9.43747 10.029 9.55915C9.72179 9.68083 9.4437 9.85907 9.21125 10.0833L6.33 8.34719C6.55664 7.80233 6.55664 7.19752 6.33 6.65266L9.21125 4.91652C9.64404 5.33214 10.226 5.5823 10.8444 5.61849C11.4627 5.65469 12.0734 5.47435 12.5579 5.11243C13.0425 4.75051 13.3665 4.23281 13.467 3.65968C13.5676 3.08656 13.4375 2.49885 13.1021 2.01049C12.7667 1.52214 12.2499 1.16794 11.6517 1.01655C11.0536 0.865172 10.4168 0.927398 9.86484 1.19117C9.31286 1.45494 8.88501 1.90146 8.66425 2.44416C8.44349 2.98686 8.44554 3.58707 8.67 4.12844L5.78875 5.86457C5.44179 5.53063 4.99649 5.30128 4.50977 5.20583C4.02306 5.11038 3.51703 5.15317 3.05639 5.32873C2.59575 5.50429 2.20141 5.80465 1.9238 6.19141C1.64618 6.57816 1.4979 7.03375 1.4979 7.49992C1.4979 7.9661 1.64618 8.42168 1.9238 8.80844C2.20141 9.19519 2.59575 9.49555 3.05639 9.67111C3.51703 9.84668 4.02306 9.88947 4.50977 9.79402C4.99649 9.69857 5.44179 9.46921 5.78875 9.13527L8.67 10.8714C8.47698 11.3381 8.44842 11.8505 8.5885 12.3335C8.72857 12.8166 9.02993 13.2449 9.44844 13.5557C9.86695 13.8666 10.3806 14.0437 10.9142 14.061C11.4479 14.0784 11.9734 13.9351 12.4139 13.6522C12.8544 13.3693 13.1867 12.9616 13.3621 12.4888C13.5376 12.0161 13.5469 11.503 13.3889 11.0249C13.2308 10.5468 12.9137 10.1286 12.4838 9.83173C12.0539 9.53482 11.5339 9.37474 11 9.37492ZM11 1.87492C11.2967 1.87492 11.5867 1.9574 11.8334 2.11192C12.08 2.26644 12.2723 2.48607 12.3858 2.74302C12.4994 2.99998 12.5291 3.28273 12.4712 3.55552C12.4133 3.8283 12.2704 4.07887 12.0607 4.27554C11.8509 4.47221 11.5836 4.60614 11.2926 4.6604C11.0017 4.71466 10.7001 4.68681 10.426 4.58038C10.1519 4.47394 9.91762 4.2937 9.7528 4.06244C9.58797 3.83119 9.5 3.5593 9.5 3.28117C9.5 2.90821 9.65804 2.55053 9.93934 2.2868C10.2206 2.02308 10.6022 1.87492 11 1.87492ZM4 8.90617C3.70333 8.90617 3.41332 8.8237 3.16664 8.66918C2.91997 8.51466 2.72771 8.29503 2.61418 8.03807C2.50065 7.78111 2.47094 7.49836 2.52882 7.22558C2.5867 6.95279 2.72956 6.70222 2.93934 6.50555C3.14912 6.30889 3.41639 6.17495 3.70736 6.12069C3.99834 6.06643 4.29994 6.09428 4.57403 6.20072C4.84811 6.30715 5.08238 6.4874 5.2472 6.71865C5.41203 6.94991 5.5 7.22179 5.5 7.49992C5.5 7.87288 5.34196 8.23057 5.06066 8.49429C4.77936 8.75801 4.39782 8.90617 4 8.90617ZM11 13.1249C10.7033 13.1249 10.4133 13.0424 10.1666 12.8879C9.91997 12.7334 9.72771 12.5138 9.61418 12.2568C9.50065 11.9999 9.47094 11.7171 9.52882 11.4443C9.5867 11.1715 9.72956 10.921 9.93934 10.7243C10.1491 10.5276 10.4164 10.3937 10.7074 10.3394C10.9983 10.2852 11.2999 10.313 11.574 10.4195C11.8481 10.5259 12.0824 10.7061 12.2472 10.9374C12.412 11.1687 12.5 11.4405 12.5 11.7187C12.5 12.0916 12.342 12.4493 12.0607 12.713C11.7794 12.9768 11.3978 13.1249 11 13.1249Z" fill="#303030"/>
</svg>
