<svg width="24" height="24" viewBox="0 0 24 24" fill="none" xmlns="http://www.w3.org/2000/svg">
<path d="M18.4286 12C18.4286 12.2273 18.3533 12.4453 18.2194 12.6061C18.0854 12.7668 17.9037 12.8571 17.7143 12.8571H6.28571C6.09627 12.8571 5.91459 12.7668 5.78064 12.6061C5.64668 12.4453 5.57143 12.2273 5.57143 12C5.57143 11.7727 5.64668 11.5547 5.78064 11.3939C5.91459 11.2332 6.09627 11.1429 6.28571 11.1429H17.7143C17.9037 11.1429 18.0854 11.2332 18.2194 11.3939C18.3533 11.5547 18.4286 11.7727 18.4286 12ZM21.2857 6H2.71429C2.52485 6 2.34316 6.09031 2.20921 6.25105C2.07525 6.4118 2 6.62981 2 6.85714C2 7.08447 2.07525 7.30249 2.20921 7.46323C2.34316 7.62398 2.52485 7.71429 2.71429 7.71429H21.2857C21.4752 7.71429 21.6568 7.62398 21.7908 7.46323C21.9247 7.30249 22 7.08447 22 6.85714C22 6.62981 21.9247 6.4118 21.7908 6.25105C21.6568 6.09031 21.4752 6 21.2857 6ZM14.1429 16.2857H9.85714C9.6677 16.2857 9.48602 16.376 9.35207 16.5368C9.21811 16.6975 9.14286 16.9155 9.14286 17.1429C9.14286 17.3702 9.21811 17.5882 9.35207 17.7489C9.48602 17.9097 9.6677 18 9.85714 18H14.1429C14.3323 18 14.514 17.9097 14.6479 17.7489C14.7819 17.5882 14.8571 17.3702 14.8571 17.1429C14.8571 16.9155 14.7819 16.6975 14.6479 16.5368C14.514 16.376 14.3323 16.2857 14.1429 16.2857Z" fill="#2C5DBB"/>
</svg>
