<svg width="20" height="20" viewBox="0 0 20 20" fill="none" xmlns="http://www.w3.org/2000/svg">
<path d="M17.9525 5.91966C17.9647 6.09606 17.9647 6.27231 17.9647 6.45028C17.9647 11.8722 13.837 18.1253 6.28969 18.1253V18.1222C4.06001 18.1253 1.87655 17.4866 0 16.2825C0.324219 16.3215 0.65 16.3411 0.976562 16.3418C2.82455 16.3433 4.61938 15.7235 6.07266 14.582C5.2164 14.5658 4.3866 14.2825 3.69929 13.7716C3.01197 13.2607 2.50149 12.5477 2.23922 11.7325C2.85438 11.8512 3.48812 11.8267 4.09187 11.6617C2.1775 11.275 0.800313 9.59309 0.800313 7.63981V7.58778C1.37099 7.9057 2.00969 8.08184 2.66266 8.10137C0.859375 6.89637 0.303906 4.49778 1.39266 2.62262C2.4228 3.89023 3.70806 4.92696 5.16497 5.66548C6.62188 6.40401 8.21785 6.8278 9.84922 6.90934C9.68661 6.20915 9.71068 5.47854 9.91902 4.79057C10.1274 4.10259 10.5127 3.48137 11.0364 2.98903C12.6891 1.43544 15.2883 1.51512 16.8417 3.167C17.7607 2.98555 18.6419 2.64863 19.4475 2.17075C19.1412 3.12086 18.5002 3.92737 17.6437 4.44028C18.4571 4.34438 19.2515 4.12657 20 3.79419C19.4493 4.61882 18.756 5.33858 17.9525 5.91966Z" fill="#1D9BF0"/>
</svg>
